<svg width="24" height="24" viewBox="0 0 24 24" fill="none" xmlns="http://www.w3.org/2000/svg">
<path d="M11.0004 12H13.0004C13.2656 12 13.52 12.1053 13.7075 12.2929C13.895 12.4804 14.0004 12.7348 14.0004 13C14.0004 13.2652 13.895 13.5196 13.7075 13.7071C13.52 13.8946 13.2656 14 13.0004 14H10.0004C9.73519 14 9.48083 13.8946 9.2933 13.7071C9.10576 13.5196 9.0004 13.2652 9.0004 13V7.99998C9.0004 7.73477 9.10576 7.48041 9.2933 7.29288C9.48083 7.10534 9.73519 6.99998 10.0004 6.99998C10.2656 6.99998 10.52 7.10534 10.7075 7.29288C10.895 7.48041 11.0004 7.73477 11.0004 7.99998V12ZM18.6304 10.438C19.0278 11.7806 19.1064 13.1975 18.86 14.5758C18.6136 15.9542 18.0489 17.256 17.211 18.3778C16.3731 19.4996 15.285 20.4105 14.0333 21.0379C12.7815 21.6653 11.4006 21.992 10.0004 21.992C8.6002 21.992 7.21931 21.6653 5.96755 21.0379C4.71579 20.4105 3.62769 19.4996 2.78978 18.3778C1.95186 17.256 1.38726 15.9542 1.14085 14.5758C0.894452 13.1975 0.973052 11.7806 1.3704 10.438C0.900299 9.94181 0.536916 9.35452 0.302704 8.71239C0.0684915 8.07026 -0.0315768 7.38692 0.00868011 6.7046C0.048937 6.02227 0.228664 5.35545 0.53676 4.74531C0.844856 4.13518 1.27478 3.59469 1.79997 3.15724C2.32515 2.71979 2.93446 2.39466 3.59024 2.20194C4.24602 2.00923 4.93435 1.95301 5.61271 2.03677C6.29107 2.12053 6.94505 2.34248 7.53426 2.68892C8.12347 3.03536 8.63539 3.49893 9.0384 4.05098C9.67794 3.98301 10.3229 3.98301 10.9624 4.05098C11.3654 3.49893 11.8773 3.03536 12.4665 2.68892C13.0558 2.34248 13.7097 2.12053 14.3881 2.03677C15.0665 1.95301 15.7548 2.00923 16.4106 2.20194C17.0664 2.39466 17.6757 2.71979 18.2008 3.15724C18.726 3.59469 19.156 4.13518 19.4641 4.74531C19.7721 5.35545 19.9519 6.02227 19.9921 6.7046C20.0324 7.38692 19.9323 8.07026 19.6981 8.71239C19.4639 9.35452 19.1005 9.94181 18.6304 10.438ZM17.6924 8.32498C17.9903 7.72115 18.0764 7.03467 17.9368 6.37598C17.7972 5.71729 17.4402 5.1247 16.923 4.69355C16.4059 4.2624 15.7587 4.01774 15.0856 3.99896C14.4126 3.98017 13.7528 4.18835 13.2124 4.58998C15.0778 5.30514 16.6533 6.61869 17.6924 8.32498ZM6.7874 4.58998C6.24701 4.18835 5.58721 3.98017 4.91416 3.99896C4.24112 4.01774 3.59396 4.2624 3.0768 4.69355C2.55965 5.1247 2.20257 5.71729 2.06301 6.37598C1.92345 7.03467 2.00953 7.72115 2.3074 8.32498C3.34646 6.61869 4.92203 5.30514 6.7874 4.58998ZM10.0004 20C10.9197 20 11.8299 19.8189 12.6792 19.4671C13.5285 19.1154 14.3001 18.5997 14.9502 17.9497C15.6002 17.2997 16.1158 16.528 16.4676 15.6788C16.8193 14.8295 17.0004 13.9192 17.0004 13C17.0004 12.0807 16.8193 11.1705 16.4676 10.3212C16.1158 9.47192 15.6002 8.70025 14.9502 8.05024C14.3001 7.40023 13.5285 6.88461 12.6792 6.53283C11.8299 6.18104 10.9197 5.99998 10.0004 5.99998C8.14389 5.99998 6.36341 6.73748 5.05066 8.05024C3.7379 9.36299 3.0004 11.1435 3.0004 13C3.0004 14.8565 3.7379 16.637 5.05066 17.9497C6.36341 19.2625 8.14389 20 10.0004 20Z" fill="#757575"/>
</svg>
