<svg width="24" height="24" viewBox="0 0 24 24" fill="none" xmlns="http://www.w3.org/2000/svg">
<path d="M7 11.5C7.55228 11.5 8 11.0523 8 10.5C8 9.94772 7.55228 9.5 7 9.5C6.44772 9.5 6 9.94772 6 10.5C6 11.0523 6.44772 11.5 7 11.5Z" fill="black"/>
<path d="M13 10.5C13 11.0523 12.5523 11.5 12 11.5C11.4477 11.5 11 11.0523 11 10.5C11 9.94772 11.4477 9.5 12 9.5C12.5523 9.5 13 9.94772 13 10.5Z" fill="black"/>
<path d="M17 11.5C17.5523 11.5 18 11.0523 18 10.5C18 9.94772 17.5523 9.5 17 9.5C16.4477 9.5 16 9.94772 16 10.5C16 11.0523 16.4477 11.5 17 11.5Z" fill="black"/>
<path fill-rule="evenodd" clip-rule="evenodd" d="M4 3C3.17157 3 2.5 3.67157 2.5 4.5V19.2962C2.5 20.585 4.01788 21.2737 4.98776 20.4251L7.04648 18.6237C7.13763 18.5439 7.25462 18.5 7.37574 18.5H20C20.8284 18.5 21.5 17.8284 21.5 17V4.5C21.5 3.67157 20.8284 3 20 3H4ZM3.5 4.5C3.5 4.22385 3.72386 4 4 4H20C20.2761 4 20.5 4.22385 20.5 4.5V17C20.5 17.2762 20.2761 17.5 20 17.5H7.37574C7.0124 17.5 6.66142 17.6319 6.38798 17.8711L4.32925 19.6725C4.00596 19.9554 3.5 19.7258 3.5 19.2962V4.5Z" fill="black"/>
</svg>
