<svg width="24" height="24" viewBox="0 0 24 24" fill="none" xmlns="http://www.w3.org/2000/svg">
<path fill-rule="evenodd" clip-rule="evenodd" d="M3.5 4C2.67157 4 2 4.67157 2 5.5V18C2 18.8284 2.67157 19.5 3.5 19.5H18.323C18.9363 19.5 19.4879 19.1266 19.7157 18.5571L22.9157 10.5571C23.3098 9.57179 22.5842 8.5 21.523 8.5H20C19.7239 8.5 19.5 8.27614 19.5 8V7.5C19.5 6.67157 18.8284 6 18 6H11.3508C11.2372 6 11.1271 5.96136 11.0384 5.89043L9.08626 4.3287C8.82029 4.11592 8.48983 4 8.14922 4H3.5ZM18.5854 8.5C18.5301 8.34361 18.5 8.17532 18.5 8V7.5C18.5 7.22386 18.2761 7 18 7H11.3508C11.0102 7 10.6797 6.88408 10.4137 6.6713L8.46157 5.10957C8.37291 5.03864 8.26275 5 8.14922 5H3.5C3.22386 5 3 5.22386 3 5.5V17.1532L5.12607 9.59388C5.30802 8.94696 5.89803 8.5 6.57005 8.5H18.5854ZM3.66002 18.5H18.323C18.5274 18.5 18.7113 18.3755 18.7872 18.1857L21.9872 10.1857C22.1186 9.85726 21.8767 9.5 21.523 9.5H6.57005C6.34604 9.5 6.14937 9.64899 6.08872 9.86463L3.66002 18.5Z" fill="black"/>
</svg>
